HIERARCHY
ROOT Hips
{
	OFFSET 0.000000 0.000000 0.000000
	CHANNELS 6 Xposition Yposition Zposition Zrotation Yrotation Xrotation 
	JOINT LHipJoint
	{
		OFFSET 0.000000 0.000000 0.000000
		CHANNELS 3 Zrotation Yrotation Xrotation
		JOINT LeftUpLeg
		{
			OFFSET 1.363060 -1.794630 0.839290
			CHANNELS 3 Zrotation Yrotation Xrotation
			JOINT LeftLeg
			{
				OFFSET 2.448110 -6.726130 0.000000
				CHANNELS 3 Zrotation Yrotation Xrotation
				JOINT LeftFoot
				{
					OFFSET 2.562200 -7.039590 0.000000
					CHANNELS 3 Zrotation Yrotation Xrotation
					JOINT LeftToeBase
					{
						OFFSET 0.157640 -0.433110 2.322550
						CHANNELS 3 Zrotation Yrotation Xrotation
						End Site
						{
							OFFSET 0.000000 0.000000 0.000000
						}
					}
				}
			}
		}
	}
	JOINT RHipJoint
	{
		OFFSET 0.000000 0.000000 0.000000
		CHANNELS 3 Zrotation Yrotation Xrotation
		JOINT RightUpLeg
		{
			OFFSET -1.305520 -1.794630 0.839290
			CHANNELS 3 Zrotation Yrotation Xrotation
			JOINT RightLeg
			{
				OFFSET -2.542530 -6.985550 0.000000
				CHANNELS 3 Zrotation Yrotation Xrotation
				JOINT RightFoot
				{
					OFFSET -2.568260 -7.056230 0.000000
					CHANNELS 3 Zrotation Yrotation Xrotation
					JOINT RightToeBase
					{
						OFFSET -0.164730 -0.452590 2.363150
						CHANNELS 3 Zrotation Yrotation Xrotation
						End Site
						{
							OFFSET 0.000000 0.000000 0.000000
						}
					}
				}
			}
		}
	}
	JOINT LowerBack
	{
		OFFSET 0.000000 0.000000 0.000000
		CHANNELS 3 Zrotation Yrotation Xrotation
		JOINT Spine
		{
			OFFSET 0.028270 2.035590 -0.193380
			CHANNELS 3 Zrotation Yrotation Xrotation
			JOINT Spine1
			{
				OFFSET 0.056720 2.048850 -0.042750
				CHANNELS 3 Zrotation Yrotation Xrotation
				JOINT Neck
				{
					OFFSET 0.000000 0.000000 0.000000
					CHANNELS 3 Zrotation Yrotation Xrotation
					JOINT Neck1
					{
						OFFSET -0.054170 1.746240 0.172020
						CHANNELS 3 Zrotation Yrotation Xrotation
						JOINT Head
						{
							OFFSET 0.104070 1.761360 -0.123970
							CHANNELS 3 Zrotation Yrotation Xrotation
							End Site
							{
								OFFSET 0.000000 0.000000 0.000000
							}
						}
					}
				}
				JOINT LeftShoulder
				{
					OFFSET 0.000000 0.000000 0.000000
					CHANNELS 3 Zrotation Yrotation Xrotation
					JOINT LeftArm
					{
						OFFSET 3.362410 1.200890 -0.311210
						CHANNELS 3 Zrotation Yrotation Xrotation
						JOINT LeftForeArm
						{
							OFFSET 4.983000 -0.000000 -0.000000
							CHANNELS 3 Zrotation Yrotation Xrotation
							JOINT LeftHand
							{
								OFFSET 3.483560 -0.000000 -0.000000
								CHANNELS 3 Zrotation Yrotation Xrotation
								JOINT LeftFingerBase
								{
									OFFSET 0.000000 0.000000 0.000000
									CHANNELS 3 Zrotation Yrotation Xrotation
									JOINT LeftHandIndex1
									{
										OFFSET 0.715260 -0.000000 -0.000000
										CHANNELS 3 Zrotation Yrotation Xrotation
										End Site
										{
											OFFSET 0.000000 0.000000 0.000000
										}
									}
								}
								JOINT LThumb
								{
									OFFSET 0.000000 0.000000 0.000000
									CHANNELS 3 Zrotation Yrotation Xrotation
									End Site
									{
										OFFSET 0.000000 0.000000 0.000000
									}
								}
							}
						}
					}
				}
				JOINT RightShoulder
				{
					OFFSET 0.000000 0.000000 0.000000
					CHANNELS 3 Zrotation Yrotation Xrotation
					JOINT RightArm
					{
						OFFSET -3.136600 1.374050 -0.404650
						CHANNELS 3 Zrotation Yrotation Xrotation
						JOINT RightForeArm
						{
							OFFSET -5.241900 -0.000000 -0.000000
							CHANNELS 3 Zrotation Yrotation Xrotation
							JOINT RightHand
							{
								OFFSET -3.444170 -0.000000 -0.000000
								CHANNELS 3 Zrotation Yrotation Xrotation
								JOINT RightFingerBase
								{
									OFFSET 0.000000 0.000000 0.000000
									CHANNELS 3 Zrotation Yrotation Xrotation
									JOINT RightHandIndex1
									{
										OFFSET -0.622530 -0.000000 -0.000000
										CHANNELS 3 Zrotation Yrotation Xrotation
										End Site
										{
											OFFSET 0.000000 0.000000 0.000000
										}
									}
								}
								JOINT RThumb
								{
									OFFSET 0.000000 0.000000 0.000000
									CHANNELS 3 Zrotation Yrotation Xrotation
									End Site
									{
										OFFSET 0.000000 0.000000 0.000000
									}
								}
							}
						}
					}
				}
			}
		}
	}
}
MOTION
Frames: 10
Frame Time: 0.008333
4.646637 17.356936 1.400743 178.636990 -59.843340 -159.034336 -10.971611 2.131025 -4.532832 -16.614734 29.967180 -21.401273 -3.739010 -1.111311 -3.043262 2.022900 14.602066 0.474642 2.290800 0.000000 -35.292200 9.559706 0.203741 4.051949 -4.744170 10.991062 -24.576004 2.408646 1.214550 -4.476732 1.331200 6.905852 15.016111 1.878200 -0.000000 -69.227100 2.699881 -4.747318 1.790799 0.756474 -4.784495 -2.293724 -2.704047 -4.894511 0.616069 15.225733 -13.512463 -5.340182 -0.489117 -0.071639 0.599904 0.000000 0.000000 0.000000 26.017777 -6.023261 2.565624 13.438169 -26.091559 -71.874763 1.943373 -11.166726 -0.235782 23.823834 -3.260638 -0.862952 -0.808636 0.692663 -0.000000 0.000000 0.000000 0.000000 0.000000 0.000000 0.000000 7.709937 -12.099378 -0.913360 59.270606 18.909264 40.989530 179.478829 74.124334 179.953236 -10.119078 4.735490 -0.469140 0.298115 -0.431074 0.000000 0.000000 0.000000 0.000000 0.000000 0.000000 0.000000 
4.648709 17.355160 1.403740 178.521163 -59.844698 -158.808099 -10.965550 2.133763 -4.518581 -16.770621 29.870127 -21.565856 -3.751089 -1.114410 -3.023537 2.025804 14.588196 0.431003 2.281400 0.000001 -35.225600 9.554454 0.219500 4.057214 -4.833169 10.958130 -24.727141 2.403232 1.220647 -4.500948 1.331049 6.886694 15.032004 1.872001 0.000000 -69.260300 2.808029 -4.745759 1.802970 0.747950 -4.792413 -2.281235 -2.835502 -4.898851 0.637298 15.413389 -13.739329 -5.348358 -0.575904 -0.077420 0.596886 0.000000 0.000000 0.000000 25.992839 -5.875470 2.442052 12.678788 -26.355367 -70.763004 1.924443 -13.252218 -0.228750 22.295000 -1.786755 -0.498879 -0.744262 0.657602 -0.000000 0.000000 0.000000 0.000000 0.000000 0.000000 0.000000 8.153161 -12.287439 -0.933929 59.592035 18.336602 40.368669 179.463835 74.245281 179.952928 -10.082276 4.724195 -0.466612 0.297207 -0.433949 0.000000 0.000000 0.000000 0.000000 0.000000 0.000000 0.000000 
4.651615 17.353473 1.406344 178.400961 -59.857990 -158.594180 -10.961970 2.135443 -4.502988 -16.908457 29.763430 -21.710115 -3.760082 -1.116671 -2.998153 2.030259 14.585859 0.387970 2.273800 0.000000 -35.155000 9.548445 0.234509 4.056810 -4.910476 10.909054 -24.853228 2.399177 1.226599 -4.529087 1.331640 6.876687 15.046996 1.869200 0.000000 -69.293001 2.934562 -4.735349 1.821663 0.737597 -4.793051 -2.269820 -2.985351 -4.895019 0.643969 15.570429 -13.962408 -5.332838 -0.668947 -0.084050 0.600134 0.000000 0.000000 0.000000 25.912840 -5.778608 2.302703 11.880611 -26.612401 -69.367830 1.888685 -15.487260 -0.218314 20.599678 -0.757852 -0.263281 -0.669305 0.638191 -0.000000 0.000000 0.000000 0.000000 0.000000 0.000000 0.000000 8.569899 -12.471135 -0.951322 59.995908 17.719343 39.724070 179.449756 74.379906 179.952535 -10.052757 4.713896 -0.464481 0.296213 -0.437030 0.000000 0.000000 0.000000 0.000000 0.000000 0.000000 0.000000 
4.655507 17.351862 1.408628 178.274936 -59.881261 -158.393600 -10.960928 2.135954 -4.487180 -17.027292 29.648990 -21.831036 -3.765939 -1.118138 -2.970615 2.036053 14.594170 0.346796 2.268200 0.000000 -35.081200 9.541784 0.249392 4.049999 -4.976479 10.845305 -24.954148 2.396330 1.232123 -4.558841 1.333000 6.876496 15.060191 1.870000 0.000000 -69.326000 3.079768 -4.717087 1.849348 0.725146 -4.787354 -2.259207 -3.155243 -4.883924 0.635032 15.696564 -14.177827 -5.292246 -0.767741 -0.091503 0.609974 0.000000 0.000000 0.000000 25.773556 -5.720200 2.142036 11.050537 -26.865953 -67.772855 1.848009 -17.868795 -0.206550 18.934276 -0.201723 -0.145268 -0.591150 0.634946 -0.000000 0.000000 0.000000 0.000000 0.000000 0.000000 0.000000 8.958276 -12.650495 -0.964898 60.482577 17.064386 39.058621 179.437093 74.527350 179.952022 -10.036226 4.706638 -0.463349 0.295222 -0.440375 0.000000 0.000000 0.000000 0.000000 0.000000 0.000000 0.000000 
4.660298 17.350325 1.410690 178.145782 -59.914423 -158.207098 -10.962719 2.135620 -4.471802 -17.128947 29.532966 -21.935314 -3.769846 -1.118243 -2.936769 2.042041 14.604537 0.305596 2.262600 -0.000000 -35.007300 9.533826 0.263852 4.038206 -5.032282 10.772398 -25.030761 2.394622 1.237734 -4.592721 1.334546 6.878713 15.073402 1.871700 -0.000000 -69.358700 3.245361 -4.692605 1.884994 0.711017 -4.777103 -2.249986 -3.345352 -4.867434 0.609582 15.791048 -14.379729 -5.225336 -0.871225 -0.099715 0.626759 0.000000 0.000000 0.000000 25.573881 -5.692931 1.957542 10.176346 -27.111550 -66.028701 1.807095 -20.409742 -0.194745 17.390258 -0.107939 -0.120144 -0.513914 0.646516 0.000000 0.000000 0.000000 0.000000 0.000000 0.000000 0.000000 9.313259 -12.822533 -0.974871 61.052659 16.374943 38.375274 179.426684 74.686646 179.951350 -10.037180 4.704094 -0.463416 0.294239 -0.444011 0.000000 0.000000 0.000000 0.000000 0.000000 0.000000 0.000000 
4.665952 17.348848 1.412613 178.014831 -59.954136 -158.034615 -10.967110 2.134451 -4.458084 -17.213456 29.415689 -22.018031 -3.771484 -1.117457 -2.903479 2.048450 14.619703 0.267573 2.258199 -0.000000 -34.933700 9.525063 0.278550 4.020771 -5.079474 10.692521 -25.084900 2.393636 1.242874 -4.626615 1.336283 6.884805 15.085260 1.874800 0.000000 -69.392200 3.427939 -4.663327 1.931058 0.694646 -4.763357 -2.241990 -3.555896 -4.846678 0.566768 15.856841 -14.565266 -5.132350 -0.978657 -0.108614 0.650412 0.000000 0.000000 0.000000 25.315351 -5.690010 1.745732 9.249415 -27.340565 -64.171909 1.771181 -23.117852 -0.185462 16.163818 -0.358828 -0.151017 -0.445360 0.667928 -0.000000 0.000000 0.000000 0.000000 0.000000 0.000000 0.000000 9.637237 -12.987111 -0.980081 61.700250 15.660811 37.678732 179.418791 74.857304 179.950518 -10.058467 4.708542 -0.465082 0.293312 -0.447964 0.000000 0.000000 0.000000 0.000000 0.000000 0.000000 0.000000 
4.672378 17.347441 1.414425 177.883842 -59.999832 -157.875005 -10.973872 2.132640 -4.446595 -17.283556 29.301539 -22.085255 -3.771850 -1.115552 -2.869005 2.054431 14.633574 0.232242 2.253800 0.000000 -34.862100 9.515341 0.293454 3.998934 -5.119592 10.609661 -25.120345 2.393151 1.247734 -4.660397 1.337830 6.890173 15.096139 1.877400 -0.000000 -69.425600 3.625467 -4.630967 1.986378 0.676247 -4.747670 -2.235813 -3.785055 -4.823415 0.506306 15.896086 -14.730946 -5.014115 -1.088707 -0.118083 0.680760 0.000000 0.000000 0.000000 25.002439 -5.711418 1.507899 8.251921 -27.536571 -62.226363 1.738721 -26.006464 -0.179818 15.316484 -0.835201 -0.211993 -0.388224 0.694225 -0.000000 0.000000 0.000000 0.000000 0.000000 0.000000 0.000000 9.928606 -13.142356 -0.980517 62.419766 14.927371 36.973310 179.413870 75.035681 179.949505 -10.100637 4.722157 -0.468549 0.292388 -0.452260 0.000000 0.000000 0.000000 0.000000 0.000000 0.000000 0.000000 
4.679476 17.346093 1.416102 177.754019 -60.049911 -157.726530 -10.982555 2.130219 -4.437812 -17.341172 29.191029 -22.138552 -3.771192 -1.112759 -2.836187 2.059836 14.645482 0.201254 2.249800 0.000000 -34.793500 9.504859 0.308777 3.973398 -5.154768 10.528065 -25.140359 2.392693 1.252190 -4.692789 1.338813 6.891392 15.105924 1.878300 -0.000000 -69.458100 3.834055 -4.597038 2.050566 0.655943 -4.731221 -2.231669 -4.029801 -4.799076 0.428973 15.912147 -14.875342 -4.873125 -1.200133 -0.127980 0.717161 0.000000 0.000000 0.000000 24.641772 -5.759473 1.247927 7.170177 -27.680274 -60.215048 1.706162 -29.081833 -0.178485 14.885007 -1.388605 -0.282876 -0.344082 0.720091 -0.000000 0.000000 0.000000 0.000000 0.000000 0.000000 0.000000 10.189043 -13.287915 -0.975821 63.201196 14.183850 36.264731 179.412148 75.220679 179.948326 -10.162351 4.745884 -0.473917 0.291407 -0.456853 0.000000 0.000000 0.000000 0.000000 0.000000 0.000000 0.000000 
4.687028 17.344852 1.417612 177.626661 -60.104647 -157.586523 -10.992765 2.127482 -4.431562 -17.390229 29.087311 -22.185713 -3.770581 -1.109003 -2.802895 2.063849 14.649549 0.174188 2.245101 0.000000 -34.729300 9.493492 0.324184 3.946100 -5.186633 10.451222 -25.150591 2.392071 1.256516 -4.724137 1.338891 6.883968 15.115342 1.875700 0.000000 -69.488600 4.050598 -4.562712 2.120464 0.634250 -4.715014 -2.230179 -4.286242 -4.774956 0.336189 15.907302 -14.995659 -4.712117 -1.311489 -0.138151 0.758926 0.000000 0.000000 0.000000 24.239960 -5.836173 0.972578 5.995127 -27.762302 -58.165409 1.667200 -32.335881 -0.180926 14.811611 -1.949953 -0.358361 -0.310976 0.742996 -0.000000 0.000000 0.000000 0.000000 0.000000 0.000000 0.000000 10.416878 -13.421134 -0.966877 64.036627 13.431479 35.555621 179.414087 75.409137 179.947004 -10.239014 4.781144 -0.480986 0.290165 -0.461719 0.000000 0.000000 0.000000 0.000000 0.000000 0.000000 0.000000 
4.694848 17.343684 1.418938 177.502859 -60.163758 -157.452403 -11.003997 2.124560 -4.427426 -17.433747 28.990750 -22.231030 -3.770481 -1.104568 -2.770399 2.066227 14.644145 0.151815 2.239899 0.000000 -34.670300 9.481426 0.339533 3.918234 -5.216587 10.380807 -25.155557 2.391053 1.260736 -4.753164 1.337879 6.865851 15.123609 1.868800 0.000000 -69.516099 4.270754 -4.528890 2.193582 0.611696 -4.699641 -2.231500 -4.549503 -4.751925 0.230623 15.884495 -15.091328 -4.535209 -1.421336 -0.148419 0.804967 0.000000 0.000000 0.000000 23.803535 -5.943749 0.690693 4.724798 -27.771952 -56.102246 1.616245 -35.748773 -0.186513 15.050088 -2.402533 -0.426649 -0.287672 0.759822 -0.000000 0.000000 0.000000 0.000000 0.000000 0.000000 0.000000 10.611846 -13.541072 -0.954494 64.915385 12.676361 34.850377 179.419761 75.596659 179.945575 -10.324499 4.828480 -0.489758 0.288488 -0.466815 0.000000 0.000000 0.000000 0.000000 0.000000 0.000000 0.000000 
